inDegrees=no
num_controls=7
num_derivatives=13
num_iterations=167
num_multipliers=7
num_parameters=0
num_slacks=7
num_states=26
objective=5.957636
objective_accelerations=0.546983
objective_balance=0.062980
objective_effort=0.465633
objective_height=4.811816
objective_ligament=0.070226
solver_duration=1745.656275
status=Solve_Succeeded
success=true
DataType=double
version=3
OpenSimVersion=4.4-2022-07-23-0e9fedc
endheader
time	/jointset/ground_pelvis/pelvis_tilt/value	/jointset/ground_pelvis/pelvis_tx/value	/jointset/ground_pelvis/pelvis_ty/value	/jointset/hip_l/hip_flexion_l/value	/jointset/hip_l/hip_adduction_l/value	/jointset/hip_l/hip_rotation_l/value	/jointset/back/lumbar_extension/value	/jointset/patellofemoral_l/patellar_flexion_l/value	/jointset/knee_l/knee_flexion_l/value	/jointset/knee_l/knee_adduction_l/value	/jointset/knee_l/knee_rotation_l/value	/jointset/ankle_l/ankle_angle_l/value	/jointset/subtalar_l/subtalar_angle_l/value	/jointset/ground_pelvis/pelvis_tilt/speed	/jointset/ground_pelvis/pelvis_tx/speed	/jointset/ground_pelvis/pelvis_ty/speed	/jointset/hip_l/hip_flexion_l/speed	/jointset/hip_l/hip_adduction_l/speed	/jointset/hip_l/hip_rotation_l/speed	/jointset/back/lumbar_extension/speed	/jointset/patellofemoral_l/patellar_flexion_l/speed	/jointset/knee_l/knee_flexion_l/speed	/jointset/knee_l/knee_adduction_l/speed	/jointset/knee_l/knee_rotation_l/speed	/jointset/ankle_l/ankle_angle_l/speed	/jointset/subtalar_l/subtalar_angle_l/speed	/forceset/tau_hip_flexion_l	/forceset/tau_hip_adduction_l	/forceset/tau_hip_rotation_l	/forceset/tau_knee_flexion_l	/forceset/tau_ankle_angle_l	/forceset/tau_subtalar_angle_l	/forceset/tau_lumbar_extension	lambda_cid13_p0	lambda_cid13_p1	lambda_cid13_p2	lambda_cid13_p3	lambda_cid13_p4	lambda_cid13_p5	lambda_cid14_p0	/jointset/ground_pelvis/pelvis_tilt/accel	/jointset/ground_pelvis/pelvis_tx/accel	/jointset/ground_pelvis/pelvis_ty/accel	/jointset/hip_l/hip_flexion_l/accel	/jointset/hip_l/hip_adduction_l/accel	/jointset/hip_l/hip_rotation_l/accel	/jointset/back/lumbar_extension/accel	/jointset/patellofemoral_l/patellar_flexion_l/accel	/jointset/knee_l/knee_flexion_l/accel	/jointset/knee_l/knee_adduction_l/accel	/jointset/knee_l/knee_rotation_l/accel	/jointset/ankle_l/ankle_angle_l/accel	/jointset/subtalar_l/subtalar_angle_l/accel	gamma_cid13_p0	gamma_cid13_p1	gamma_cid13_p2	gamma_cid13_p3	gamma_cid13_p4	gamma_cid13_p5	gamma_cid14_p0
1.5	0.04535057720448996	0.01736158054800478	0.8586539581402484	0.6011859699736938	-0.3240299602424539	-0.1317280434109483	-0.7868525373749559	0.7959735955647195	0.795973595564725	-0.09919711032779785	-0.1745279971447342	0.2100613669691699	0.04437436610682791	0.2253741053486681	0.1752047941572716	0.402531018733138	-1.803694775320387	0.09286321438183306	-0.6432444764223703	0.8438406796204047	-2.044917865970245	-2.044917865970236	-0.1507649272044116	-1.900407235713868e-05	-0.5949288250287075	-0.1153344094591949	-0.1697843813673905	0.02975087729189189	-0.005964813287337936	-0.2303996127397064	0.0175972508035168	0.040217293642704	0.2611552426111473	-35.96402219177094	-14.12653040667208	5.175681006117238	-3.162505828955797	-667.9144667284835	-75.67769195515768	-14.61771530076311	-0.1348344956990301	0.5097916059198896	-0.6259022454555493	-0.4984248391616736	0.4472061825901272	-0.4165544091341442	1.799651284268394	-1.041923729206268	-1.041923729206251	-0.2403557881689485	0.009927749961394644	-0.4055638814112495	0.4469160742915279	3.870795198073699e-07	9.667021500189856e-07	-1.963685996733813e-06	-5.130136822233217e-08	4.676385288328041e-07	1.017734155354302e-06	3.25294882732918e-07
1.51	0.04759767381184565	0.0191389961423502	0.8626472023650162	0.5831253972980797	-0.3230800752359321	-0.138179712038334	-0.7783257039788407	0.7754746002133787	0.7754746002133535	-0.100719669960067	-0.174528361008625	0.2040923642359123	0.04324205623101877	0.2240196908205345	0.1802621013862518	0.3960348673140492	-1.808188468588598	0.09710924370000361	-0.6469931342916965	0.8614067440048129	-2.054586492198748	-2.054586492198648	-0.1537664761973328	-3.241376514102117e-05	-0.5987617678850684	-0.111104016129577	-0.1631110735414201	0.02819892575601749	-0.005738844428870382	-0.2269609276910874	0.02035532384832761	0.03963647949538065	0.2545081233246285	-34.872541106795	-14.10065375110895	5.2118303776442	-3.460443609433712	-663.7267238725616	-75.79150616658738	-15.36499232609996	-0.1395440218847462	0.50126311481812	-0.6738134555945932	-0.3901101059051474	0.4127760038250716	-0.3392602118433841	1.717195675451653	-0.8851935643568606	-0.8851935643433457	-0.3328521952182626	-0.004116159247039057	-0.355616840940219	0.4146568987144462	3.947944885106728e-07	1.159534062473985e-06	-1.930025249983358e-06	-2.954857986846083e-08	4.954995510139878e-07	1.119855589145743e-06	3.360221340808963e-07
1.52	0.04983046645581436	0.02096649737567082	0.8665730167025015	0.5650268339827289	-0.3220878349967403	-0.1446659149916155	-0.7696267876068983	0.7548877463007988	0.7548877463007814	-0.1022728046303226	-0.1745282871355036	0.1980883406034544	0.04215276147579011	0.2225133126718501	0.1852219219523132	0.3890450412766405	-1.811292903266989	0.1013342609139395	-0.6501513416014788	0.8782572747862344	-2.062489578214634	-2.062489578214444	-0.1568799348048294	6.854332813050455e-05	-0.6019330048690934	-0.1067313853432539	-0.156437765715456	0.02664697422017569	-0.005512875570229339	-0.2235222426424703	0.02311339689315233	0.03905566534809935	0.2478610040380943	-33.77917843439904	-14.07594844912809	5.249130453535192	-3.803083581218634	-659.5428585977411	-75.96728044233737	-16.10026271120018	-0.16522721980951	0.490294273336433	-0.7246371691195429	-0.2205731211975499	0.443003761743114	-0.2984642972254313	1.656544563670838	-0.6888156866831862	-0.6888156866831906	-0.2627377110841208	0.0328011071723593	-0.2732227069437534	0.4753635656326192	3.415349760546313e-07	1.526089779926837e-06	-1.541484253401738e-06	4.808791210397928e-08	4.624135907501189e-07	1.160562893176564e-06	3.178590661032497e-07
1.53	0.05204736285782215	0.02284295471901863	0.8704265483745061	0.5469044031159156	-0.3210531424819307	-0.1511833854992872	-0.7607631563052476	0.7342307166448019	0.7342307166447523	-0.1038554146197622	-0.1745282399284891	0.1920558317720613	0.04110829642324641	0.2208373488894475	0.1900377069204697	0.3815866782838789	-1.812948855534428	0.1055971685185528	-0.6532466957926338	0.8943250982728271	-2.068628405247225	-2.06862840524704	-0.1596652172081061	-4.172104265434683e-05	-0.6044772510804038	-0.1021496122220072	-0.1498272970858772	0.02546163221037931	-0.005297878755190515	-0.2199364765233568	0.02530375668353128	0.03812482383808542	0.241186025568399	-32.90788336307894	-13.84014791744817	5.229706058093758	-3.788641766761462	-655.6180847407862	-75.76940211347001	-16.82363484360745	-0.1730810346885371	0.472496330014638	-0.7675656520755886	-0.1014522622962088	0.4166696552283585	-0.3004232860207904	1.560318150084885	-0.5332726190742709	-0.533272619075061	-0.2895411977411725	-0.03038133380996418	-0.231219528489769	0.4510530369059399	2.234900773667871e-07	2.077227040189905e-06	-7.758829913745087e-07	1.85100839171148e-07	3.645714616383823e-07	1.136017684336725e-06	2.690000338421269e-07
1.54	0.05424663960655201	0.02476662505633911	0.8742032704590388	0.5287727435298631	-0.3199760738119914	-0.1577288800100607	-0.7517431633869471	0.713520927436926	0.7135209274369396	-0.1054665009717086	-0.1745287835900305	0.1860006416885025	0.0401099428722225	0.2189893820177614	0.1946645207468485	0.3736831237822828	-1.813138647113034	0.1098094919394783	-0.6557561422222036	0.9095295981167066	-2.073041488580906	-2.073041488580726	-0.1625752073230533	-4.963039766727773e-05	-0.6064692553023149	-0.09750908503934615	-0.1432168284563184	0.02427629020059615	-0.005082881939496449	-0.2163507104042719	0.02749411647391569	0.03719398232808305	0.234511047098682	-32.03364886342158	-13.60774075924505	5.214111566533015	-3.812067525886805	-651.6805875946142	-75.60374200915531	-17.53582540195139	-0.1996278376665625	0.4525000449811366	-0.813675470886419	0.0726590165691888	0.4328869250054817	-0.1812827449082277	1.483879835127981	-0.3436669469013865	-0.3436669469013865	-0.2876792534182466	0.05327211032691886	-0.162774309063588	0.4871143779156394	1.402780801795606e-07	2.41549982083563e-06	-2.767196103378504e-07	2.745971310827253e-07	2.897157026026323e-07	1.097912844011998e-06	2.359107042643007e-07
1.55	0.05642655607305552	0.02673565346703645	0.8778988002797062	0.5106465885142349	-0.3188570179977472	-0.1642973160024214	-0.7425753378084063	0.6927759205143746	0.6927759205143991	-0.1071065178255652	-0.174529356751797	0.1799285771965576	0.03915856531032007	0.216971812972694	0.1991125316833384	0.3653577830984909	-1.811857964527066	0.1139926495170499	-0.6578537927903445	0.9238907414784531	-2.075656357896338	-2.075656357896226	-0.1654283956133112	-6.253405437111793e-05	-0.607831398054468	-0.09274848249305451	-0.1365712028594697	0.02265852744609804	-0.004954336220902453	-0.2132564132584217	0.03016875660164673	0.03637471270889476	0.2279300555014361	-31.02121615197909	-13.45215838252239	5.215529488196045	-4.00122842624573	-648.144352813056	-75.64718440246739	-18.23752672974916	-0.2061541113209021	0.436722892499154	-0.851679060712436	0.1909097367223355	0.4093838611013568	-0.2122190899952789	1.390515169314213	-0.1749087599626684	-0.1749087599729198	-0.2837681186419899	-0.02818322486389398	-0.1060178288461071	0.4728173938571241	9.719964341695645e-08	2.508515701052693e-06	-8.45390052250938e-08	3.093459955324284e-07	2.41344239523996e-07	1.044184950019903e-06	2.209908147346196e-07
1.56	0.05858563031441793	0.02874831624200111	0.8815091335548181	0.4925402676958779	-0.3176964598703351	-0.1708843710759058	-0.7332682440797268	0.6720138625314724	0.6720138625314687	-0.1087749924627221	-0.1745299812742825	0.1738462745629802	0.03825525061405458	0.2148209369918924	0.2033913936003129	0.3566438146711791	-1.809171807656643	0.1181099545733559	-0.6594799584476068	0.937383228144882	-2.076451700655717	-2.076451700655673	-0.1682667639760602	-5.990255886783586e-05	-0.6085168836288162	-0.08789651191191074	-0.1299255772626327	0.02104076469160553	-0.004825790502672607	-0.2101621161125564	0.03284339672938388	0.0355554430897198	0.2213490639041795	-30.00904120241432	-13.29764927309808	5.218396327057685	-4.214214143949458	-644.6374174771947	-75.71603224044712	-18.91800737862445	-0.2262892248138177	0.4186702410783252	-0.8914010195903519	0.3537538734599338	0.4197164207524747	-0.08698576273215126	1.310148496064193	0.02023836430914761	0.02023836430914626	-0.2847152679164532	0.0563791407688022	-0.02744287350232375	0.5053879848863106	5.653251908001475e-08	2.549065692549595e-06	7.758247237595412e-08	3.354530468106728e-07	1.919062658633345e-07	9.770356667555544e-07	2.052461296583472e-07
1.57	0.06072230807319128	0.0308028326855373	0.8850304521498101	0.4744682192467127	-0.3164949090239264	-0.1774856743013876	-0.7238304649863865	0.65125304802328	0.651253048023271	-0.1104712688101579	-0.1745306229526348	0.1677604938514642	0.0374011016314609	0.212485059436179	0.2074744730033756	0.3475650447964191	-1.804992801696929	0.1221912711340377	-0.6607157975046872	0.9500203741613515	-2.075413409661188	-2.075413409661205	-0.1709736375477993	-7.345159330299748e-05	-0.6085357794914864	-0.08291851400798546	-0.1233224279546513	0.01961683610412769	-0.004786461706748966	-0.2071142297118435	0.03535786871811539	0.03454362216363351	0.2148364269944038	-29.0838699685257	-13.03453436732399	5.192814719945892	-4.275895303735413	-641.5096425706305	-75.60355403231046	-19.56882615735795	-0.241695073699993	0.3975853890621622	-0.9243215203145304	0.4867051067617768	0.4006630290090352	-0.1319956662707054	1.217665199721842	0.1902574026963469	0.1902574026871659	-0.2610290562898746	-0.03091771699229296	0.02648088149140515	0.4957931260033419	1.887953527515101e-08	2.524033323146298e-06	2.021300405873665e-07	3.507578316245939e-07	1.411351539751416e-07	8.931096469008894e-07	1.884704501488359e-07
